<?xml version="1.0" encoding="utf-8"?>
<!-- Generator: Adobe Illustrator 16.0.0, SVG Export Plug-In . SVG Version: 6.00 Build 0)  -->
<!DOCTYPE svg PUBLIC "-//W3C//DTD SVG 1.1//EN" "http://www.w3.org/Graphics/SVG/1.1/DTD/svg11.dtd">
<svg version="1.1" xmlns="http://www.w3.org/2000/svg" xmlns:xlink="http://www.w3.org/1999/xlink" x="0px" y="0px"
	 width="384.25px" height="60px" viewBox="0 0 384.25 60" enable-background="new 0 0 384.25 60" xml:space="preserve">
<g id="Layer_1">
	<g>
		<path fill="#BF912D" d="M33.186,3.476v42.023h-6.854l-0.481-4.088c-2.285,3.547-5.952,4.749-9.559,4.749
			c-8.717,0-15.271-5.771-15.271-15.511c0-10.22,6.433-15.511,15.09-15.511c3.126,0,7.996,1.683,9.739,4.75V3.476H33.186z
			 M8.356,30.649c0,5.17,3.728,8.718,8.417,8.718c4.629,0,8.597-3.367,8.597-8.718c0-5.17-3.968-8.657-8.597-8.657
			C12.084,21.992,8.356,25.299,8.356,30.649z"/>
		<path fill="#BF912D" d="M46.35,15.86l0.541,3.427c2.285-3.667,5.351-4.208,8.357-4.208c3.066,0,6.012,1.202,7.635,2.826
			l-3.306,6.373c-1.503-1.263-2.886-1.924-5.291-1.924c-3.848,0-7.395,2.044-7.395,7.515v15.631h-7.334V15.86H46.35z"/>
		<path fill="#BF912D" d="M65.646,57.884V15.86H72.5l0.481,4.088c2.285-3.307,6.252-4.75,9.619-4.75
			c9.138,0,15.21,6.793,15.21,15.511c0,8.658-5.471,15.511-14.97,15.511c-3.126,0-7.755-0.962-9.86-4.209v15.872H65.646z
			 M90.476,30.709c0-4.629-3.126-8.417-8.417-8.417s-8.417,3.788-8.417,8.417c0,4.629,3.427,8.417,8.417,8.417
			S90.476,35.339,90.476,30.709z"/>
	</g>
	<circle fill="#BF912D" cx="57.913" cy="51.541" r="6.033"/>
	<path fill="#BF912D" d="M7.311,52.709c0,2.256,1.83,4.087,4.087,4.087h34.059c2.257,0,4.087-1.831,4.087-4.087l0,0
		c0-2.257-1.83-4.088-4.087-4.088H11.398C9.141,48.621,7.311,50.452,7.311,52.709L7.311,52.709z"/>
	<path fill="#BF912D" d="M383.336,31.872c0,7.931-6.431,14.36-14.36,14.36H118.834c-7.931,0-14.36-6.43-14.36-14.36v-2.597
		c0-7.931,6.429-14.36,14.36-14.36h250.142c7.93,0,14.36,6.429,14.36,14.36V31.872z"/>
	<g>
		<path fill="#FFFFFF" d="M134.219,29.595c0.085,5.051-2.996,10.158-9.987,10.158c-2.454,0-5.393,0-7.847,0V19.779
			c2.454,0,5.393,0,7.847,0C131.081,19.779,134.134,24.659,134.219,29.595z M120.124,36.129h4.109c4.537,0,6.334-3.31,6.249-6.563
			c-0.086-3.11-1.912-6.221-6.249-6.221h-4.109V36.129z"/>
		<path fill="#FFFFFF" d="M147.889,25.686h3.338v14.067h-3.282l-0.171-2.055c-0.799,1.655-2.996,2.454-4.565,2.482
			c-4.166,0.028-7.248-2.539-7.248-7.476c0-4.851,3.224-7.39,7.333-7.362c1.883,0,3.681,0.885,4.48,2.283L147.889,25.686z
			 M139.442,32.705c0,2.683,1.854,4.28,4.166,4.28c5.479,0,5.479-8.532,0-8.532C141.297,28.454,139.442,30.023,139.442,32.705z"/>
		<path fill="#FFFFFF" d="M157.963,21.72c0,2.71-4.109,2.71-4.109,0C153.854,19.009,157.963,19.009,157.963,21.72z M154.168,25.628
			v14.125h3.481V25.628H154.168z"/>
		<path fill="#FFFFFF" d="M164.24,19.808v19.945h-3.452V19.808H164.24z"/>
		<path fill="#FFFFFF" d="M181.761,25.686l-8.589,19.945h-3.823l2.625-6.106l-5.621-13.839h4.052l2.14,6.078l1.341,3.966
			l1.456-3.881l2.568-6.163H181.761z"/>
		<path fill="#FFFFFF" d="M207.329,39.753h-4.48l-5.821-6.677h-3.624v6.677h-3.767V19.75c3.167,0,6.334,0.029,9.502,0.029
			c4.708,0.028,7.19,3.167,7.19,6.62c0,2.739-1.255,5.507-5.051,6.278l6.049,6.819V39.753z M193.405,23.289v6.392h5.735
			c2.396,0,3.424-1.598,3.424-3.196c0-1.598-1.056-3.196-3.424-3.196H193.405z"/>
		<path fill="#FFFFFF" d="M211.583,33.961c0.228,1.74,1.741,2.996,4.194,2.996c1.284,0,2.968-0.485,3.767-1.313l2.226,2.196
			c-1.484,1.541-3.909,2.283-6.049,2.283c-4.851,0-7.732-2.996-7.732-7.505c0-4.28,2.91-7.361,7.476-7.361
			c4.708,0,7.647,2.91,7.105,8.703H211.583z M219.229,31.078c-0.228-1.826-1.655-2.739-3.652-2.739
			c-1.883,0-3.424,0.913-3.938,2.739H219.229z"/>
		<path fill="#FFFFFF" d="M234.439,29.424c-0.999-0.942-2.14-1.256-3.481-1.256c-1.655,0-2.568,0.514-2.568,1.398
			c0,0.913,0.827,1.427,2.625,1.541c2.654,0.171,6.021,0.771,6.021,4.508c0,2.482-2.026,4.623-6.049,4.623
			c-2.226,0-4.451-0.371-6.505-2.512l1.712-2.482c0.999,1.113,3.281,1.94,4.851,1.97c1.313,0.028,2.54-0.657,2.54-1.684
			c0-0.971-0.799-1.37-2.796-1.484c-2.653-0.199-5.821-1.17-5.821-4.365c0-3.253,3.367-4.395,5.935-4.395
			c2.197,0,3.852,0.428,5.479,1.855L234.439,29.424z"/>
		<path fill="#FFFFFF" d="M242.23,33.961c0.229,1.74,1.741,2.996,4.194,2.996c1.284,0,2.968-0.485,3.767-1.313l2.226,2.196
			c-1.484,1.541-3.909,2.283-6.049,2.283c-4.851,0-7.732-2.996-7.732-7.505c0-4.28,2.911-7.361,7.476-7.361
			c4.708,0,7.647,2.91,7.104,8.703H242.23z M249.877,31.078c-0.228-1.826-1.655-2.739-3.652-2.739c-1.883,0-3.424,0.913-3.938,2.739
			H249.877z"/>
		<path fill="#FFFFFF" d="M267.057,25.686h3.338v14.067h-3.282l-0.171-2.055c-0.799,1.655-2.996,2.454-4.565,2.482
			c-4.166,0.028-7.248-2.539-7.248-7.476c0-4.851,3.224-7.39,7.333-7.362c1.883,0,3.681,0.885,4.48,2.283L267.057,25.686z
			 M258.611,32.705c0,2.683,1.855,4.28,4.166,4.28c5.479,0,5.479-8.532,0-8.532C260.466,28.454,258.611,30.023,258.611,32.705z"/>
		<path fill="#FFFFFF" d="M276.56,25.686l0.257,1.626c1.084-1.74,2.54-1.997,3.966-1.997c1.455,0,2.853,0.57,3.624,1.341
			l-1.569,3.025c-0.713-0.6-1.37-0.913-2.511-0.913c-1.826,0-3.51,0.97-3.51,3.566v7.419h-3.481V25.686H276.56z"/>
		<path fill="#FFFFFF" d="M297.791,37.955c-1.626,1.598-3.339,2.226-5.422,2.226c-4.08,0-7.476-2.454-7.476-7.447
			s3.396-7.447,7.476-7.447c1.998,0,3.539,0.571,5.079,2.083l-2.197,2.312c-0.828-0.742-1.855-1.113-2.825-1.113
			c-2.34,0-4.052,1.712-4.052,4.166c0,2.683,1.826,4.109,3.995,4.109c1.113,0,2.226-0.314,3.082-1.17L297.791,37.955z"/>
		<path fill="#FFFFFF" d="M302.813,19.779v7.818c1.256-1.626,2.796-2.112,4.395-2.112c3.994,0,5.764,2.711,5.764,6.848v7.419h-3.481
			v-7.391c0-2.568-1.341-3.652-3.195-3.652c-2.055,0-3.481,1.74-3.481,3.852v7.19h-3.481V19.779H302.813z"/>
		<path fill="#FFFFFF" d="M331.35,33.875H325.7v5.878h-3.767V19.779c3.139,0,6.277-0.029,9.416-0.029
			C341.108,19.75,341.137,33.875,331.35,33.875z M325.7,30.422h5.649c4.822,0,4.794-7.077,0-7.077H325.7V30.422z"/>
		<path fill="#FFFFFF" d="M344.42,19.808v19.945h-3.452V19.808H344.42z"/>
		<path fill="#FFFFFF" d="M361.455,32.733c0,4.052-2.768,7.333-7.333,7.333s-7.305-3.281-7.305-7.333
			c0-4.023,2.796-7.333,7.276-7.333C358.573,25.4,361.455,28.71,361.455,32.733z M350.298,32.733c0,2.141,1.284,4.138,3.824,4.138
			c2.539,0,3.823-1.997,3.823-4.138c0-2.111-1.483-4.166-3.823-4.166C351.61,28.567,350.298,30.622,350.298,32.733z"/>
		<path fill="#FFFFFF" d="M368.476,21.72v3.995h3.881v2.996h-3.909v6.078c0,1.341,0.742,1.997,1.826,1.997
			c0.542,0,1.17-0.171,1.684-0.428l0.971,2.968c-0.999,0.399-1.826,0.57-2.883,0.599c-3.053,0.114-5.05-1.626-5.05-5.136V28.71
			h-2.625v-2.996h2.625V22.09L368.476,21.72z"/>
	</g>
</g>
<g id="Layer_2">
</g>
</svg>
