<?xml version="1.0" encoding="UTF-8"?>
<svg xmlns="http://www.w3.org/2000/svg" xmlns:xlink="http://www.w3.org/1999/xlink" width="32px" height="32px" viewBox="0 0 32 32" version="1.1">
<g id="surface1">
<path style=" stroke:none;fill-rule:nonzero;fill:rgb(0%,0%,0%);fill-opacity:1;" d="M 21.203125 10.851562 C 21.007812 10.652344 20.691406 10.652344 20.496094 10.851562 L 16.007812 15.339844 L 11.519531 10.851562 C 11.324219 10.652344 11.007812 10.652344 10.8125 10.851562 C 10.617188 11.046875 10.617188 11.363281 10.8125 11.558594 L 15.300781 16.046875 L 10.8125 20.535156 C 10.617188 20.730469 10.617188 21.046875 10.8125 21.242188 C 10.910156 21.339844 11.039062 21.386719 11.164062 21.386719 C 11.292969 21.386719 11.421875 21.339844 11.519531 21.242188 L 16.007812 16.753906 L 20.496094 21.242188 C 20.59375 21.339844 20.722656 21.386719 20.851562 21.386719 C 20.976562 21.386719 21.105469 21.339844 21.203125 21.242188 C 21.398438 21.046875 21.398438 20.730469 21.203125 20.535156 L 16.714844 16.046875 L 21.203125 11.558594 C 21.398438 11.363281 21.398438 11.046875 21.203125 10.851562 Z M 16.007812 3.511719 C 9.097656 3.511719 3.476562 9.136719 3.476562 16.046875 C 3.476562 22.957031 9.097656 28.578125 16.007812 28.578125 C 22.917969 28.578125 28.539062 22.957031 28.539062 16.046875 C 28.539062 9.136719 22.917969 3.511719 16.007812 3.511719 Z M 16.007812 27.578125 C 9.648438 27.578125 4.476562 22.40625 4.476562 16.046875 C 4.476562 9.6875 9.648438 4.515625 16.007812 4.515625 C 22.367188 4.515625 27.539062 9.6875 27.539062 16.046875 C 27.539062 22.402344 22.367188 27.578125 16.007812 27.578125 Z M 16.007812 27.578125 "/>
</g>
</svg>
