<?xml version="1.0" encoding="UTF-8"?>
<svg xmlns="http://www.w3.org/2000/svg" xmlns:xlink="http://www.w3.org/1999/xlink" width="32px" height="32px" viewBox="0 0 32 32" version="1.1">
<g id="surface1">
<path style=" stroke:none;fill-rule:nonzero;fill:rgb(0%,0%,0%);fill-opacity:1;" d="M 28.019531 26.542969 L 20.9375 19.457031 C 22.238281 17.832031 23.019531 15.761719 23.019531 13.511719 C 23.019531 8.257812 18.761719 4 13.519531 4 C 8.269531 4 4.019531 8.261719 4.019531 13.511719 C 4.019531 18.761719 8.273438 23.023438 13.519531 23.023438 C 15.78125 23.023438 17.855469 22.230469 19.488281 20.914062 L 26.5625 28 Z M 7.507812 19.539062 C 5.898438 17.929688 5.019531 15.792969 5.019531 13.519531 C 5.019531 11.242188 5.90625 9.105469 7.507812 7.5 C 9.105469 5.894531 11.25 5 13.519531 5 C 15.789062 5 17.925781 5.886719 19.53125 7.492188 C 21.136719 9.101562 22.019531 11.238281 22.019531 13.511719 C 22.019531 15.789062 21.132812 17.925781 19.53125 19.53125 C 17.925781 21.136719 15.789062 22.023438 13.519531 22.023438 C 11.25 22.03125 9.113281 21.144531 7.507812 19.539062 Z M 7.507812 19.539062 "/>
</g>
</svg>
