<?xml version="1.0" encoding="UTF-8"?>
<svg xmlns="http://www.w3.org/2000/svg" xmlns:xlink="http://www.w3.org/1999/xlink" width="32px" height="32px" viewBox="0 0 32 32" version="1.1">
<g id="surface1">
<path style=" stroke:none;fill-rule:nonzero;fill:rgb(0%,0%,0%);fill-opacity:1;" d="M 7 20 C 4.789062 20 3 18.210938 3 16 C 3 13.789062 4.789062 12 7 12 C 9.210938 12 11 13.789062 11 16 C 11 18.210938 9.210938 20 7 20 Z M 7 14 C 5.894531 14 5 14.894531 5 16 C 5 17.105469 5.894531 18 7 18 C 8.105469 18 9 17.105469 9 16 C 9 14.894531 8.105469 14 7 14 Z M 7 14 "/>
<path style=" stroke:none;fill-rule:nonzero;fill:rgb(0%,0%,0%);fill-opacity:1;" d="M 25 12 C 22.789062 12 21 10.210938 21 8 C 21 5.789062 22.789062 4 25 4 C 27.210938 4 29 5.789062 29 8 C 29 10.210938 27.210938 12 25 12 Z M 25 6 C 23.894531 6 23 6.894531 23 8 C 23 9.105469 23.894531 10 25 10 C 26.105469 10 27 9.105469 27 8 C 27 6.894531 26.105469 6 25 6 Z M 25 6 "/>
<path style=" stroke:none;fill-rule:nonzero;fill:rgb(0%,0%,0%);fill-opacity:1;" d="M 25 28 C 22.789062 28 21 26.210938 21 24 C 21 21.789062 22.789062 20 25 20 C 27.210938 20 29 21.789062 29 24 C 29 26.210938 27.210938 28 25 28 Z M 25 22 C 23.894531 22 23 22.894531 23 24 C 23 25.105469 23.894531 26 25 26 C 26.105469 26 27 25.105469 27 24 C 27 22.894531 26.105469 22 25 22 Z M 25 22 "/>
<path style=" stroke:none;fill-rule:nonzero;fill:rgb(0%,0%,0%);fill-opacity:1;" d="M 22 23 C 21.792969 23 21.589844 22.933594 21.421875 22.808594 C 16.789062 19.511719 15 18.710938 9.679688 17 C 9.15625 16.824219 8.875 16.253906 9.050781 15.730469 C 9.226562 15.207031 9.796875 14.921875 10.320312 15.101562 C 15.820312 16.941406 17.839844 17.851562 22.578125 21.238281 C 22.890625 21.503906 23.011719 21.929688 22.882812 22.316406 C 22.753906 22.703125 22.40625 22.972656 22 23 Z M 22 23 "/>
<path style=" stroke:none;fill-rule:nonzero;fill:rgb(0%,0%,0%);fill-opacity:1;" d="M 10 17 C 9.570312 17 9.1875 16.726562 9.050781 16.320312 C 8.964844 16.066406 8.984375 15.792969 9.101562 15.554688 C 9.21875 15.316406 9.425781 15.132812 9.679688 15.050781 C 14.949219 13.289062 16.789062 12.488281 21.421875 9.191406 C 21.707031 8.945312 22.109375 8.882812 22.457031 9.027344 C 22.804688 9.171875 23.042969 9.503906 23.066406 9.878906 C 23.09375 10.257812 22.90625 10.617188 22.578125 10.808594 C 17.839844 14.199219 15.820312 15.109375 10.320312 16.949219 C 10.214844 16.980469 10.109375 16.996094 10 17 Z M 10 17 "/>
</g>
</svg>
